
<svg xmlns="http://www.w3.org/2000/svg" viewBox="0 0 429.47 617.52"><defs><style>.cls-1{fill:#ed9221;}.cls-2{fill:none;stroke:#ed9221;stroke-miterlimit:10;stroke-width:3px;}</style></defs><title>Asset 4lmucon</title><g id="Layer_2" data-name="Layer 2"><g id="Layer_1-2" data-name="Layer 1"><path class="cls-1" d="M115.15,172V105.56H130v53.22H158.3V172Z"/><path class="cls-1" d="M228.64,130.17l-18,36.31h-8.84L184,130.17V172H169.14V105.56h20.05l17.11,36.5,17.21-36.5h20V172H228.64Z"/><path class="cls-1" d="M277.4,154.84a12.15,12.15,0,0,0,10,4.61,12,12,0,0,0,9.93-4.61q3.66-4.6,3.66-12.59V105.56H315.8v37.16q0,14.44-8,22.2t-20.44,7.74q-12.45,0-20.48-7.79t-8-22.15V105.56h14.82v36.69Q273.69,150.23,277.4,154.84Z"/><path class="cls-1" d="M141.53,237.72a21.91,21.91,0,0,0,17.87-8.65l9.5,9.79q-11.31,12.73-26.66,12.73T117,241.9Q107,232.21,107,217.42t10.13-24.66a34.08,34.08,0,0,1,24.76-9.89q16.34,0,27.37,12.45l-9.22,10.46Q153,197,142.57,197a20.4,20.4,0,0,0-14.3,5.47q-5.94,5.46-5.94,14.73t5.6,14.88A18.52,18.52,0,0,0,141.53,237.72Z"/><path class="cls-1" d="M235.06,241.66Q225,251.5,210.25,251.5t-24.81-9.84q-10.08-9.84-10.08-24.47t10.08-24.48q10.08-9.84,24.81-9.84t24.81,9.84q10.06,9.84,10.07,24.48A32.85,32.85,0,0,1,235.06,241.66Zm-5-24.43a21.75,21.75,0,0,0-5.7-15.16,18.81,18.81,0,0,0-28,0,22.93,22.93,0,0,0,0,30.28,18.91,18.91,0,0,0,28,0A21.58,21.58,0,0,0,230,217.23Z"/><path class="cls-1" d="M304.16,184.39H319v66.44H304.16L272.51,209.2v41.63H257.68V184.39h13.88l32.6,42.78Z"/><path class="cls-2" d="M136.69,286.2a10.44,10.44,0,0,0,2.2-6,6.68,6.68,0,0,0-1.91-4.86,6.55,6.55,0,0,0-4.9-1.95q-5.48,0-10.37,7.8L111.33,275a32.21,32.21,0,0,1,8.93-9.55c3.23-2.15,7.36-3.23,12.36-3.23a19.92,19.92,0,0,1,13.2,4.77q5.69,4.77,5.69,13a17.36,17.36,0,0,1-2.29,8.59q-2.28,4.11-8.42,10.5L130.34,310h22.91V321.6H112.33V312l17-17.43A74.32,74.32,0,0,0,136.69,286.2Z"/><path class="cls-2" d="M186.37,322.27q-12,0-18-8.18t-6-21.83q0-13.65,6-21.83t18-8.17q12,0,18,8.17t6,21.83q0,13.67-6,21.83T186.37,322.27Zm-8.55-44q-2.74,5.31-2.74,14t2.74,14a9.54,9.54,0,0,0,17.1,0q2.73-5.31,2.73-14t-2.73-14a9.54,9.54,0,0,0-17.1,0Z"/><path class="cls-2" d="M244.17,286.2a10.44,10.44,0,0,0,2.2-6,6.64,6.64,0,0,0-1.91-4.86,6.54,6.54,0,0,0-4.89-1.95q-5.48,0-10.38,7.8L218.82,275a32.18,32.18,0,0,1,8.92-9.55q4.86-3.23,12.37-3.23A19.91,19.91,0,0,1,253.3,267Q259,271.8,259,280a17.46,17.46,0,0,1-2.28,8.59q-2.28,4.11-8.43,10.5L237.83,310h22.9V321.6H219.81V312l17-17.43A73.29,73.29,0,0,0,244.17,286.2Z"/><path class="cls-2" d="M293.85,322.27q-12,0-18-8.18t-6-21.83q0-13.65,6-21.83t18-8.17q12,0,18,8.17t6,21.83q0,13.67-6,21.83T293.85,322.27Zm-8.55-44q-2.74,5.31-2.74,14t2.74,14a9.54,9.54,0,0,0,17.1,0q2.73-5.31,2.74-14t-2.74-14a9.54,9.54,0,0,0-17.1,0Z"/><path class="cls-1" d="M413.44,165.84C388.77,77.15,307.17,15.21,215,15.21S41.23,77.15,16.56,165.84L1.91,161.77A221.21,221.21,0,0,1,398.12,97.12a219.81,219.81,0,0,1,30,64.65Z"/><path class="cls-1" d="M215,442.31A221.21,221.21,0,0,1,.53,275.29l14.75-3.71a206,206,0,0,0,399.44,0l14.75,3.71A221,221,0,0,1,215,442.31Z"/><rect class="cls-1" y="208.8" width="25.35" height="13.31"/><rect class="cls-1" x="403.65" y="208.8" width="25.35" height="13.31"/><rect class="cls-1" x="121.98" y="515.81" width="185.67" height="17.74" transform="translate(-309.87 739.5) rotate(-90)"/><rect class="cls-1" x="175.21" y="498.07" width="150.18" height="17.74" transform="translate(-256.64 757.25) rotate(-90)"/><rect class="cls-1" x="224.96" y="467.97" width="117.86" height="17.74" transform="translate(-192.95 760.73) rotate(-90)"/><rect class="cls-1" x="276.28" y="439.46" width="83.65" height="17.74" transform="translate(-130.22 766.43) rotate(-90)"/><rect class="cls-1" x="104.24" y="498.07" width="150.18" height="17.74" transform="translate(-327.61 686.27) rotate(-90)"/><rect class="cls-1" x="86.81" y="467.97" width="117.86" height="17.74" transform="translate(-331.1 622.59) rotate(-90)"/><rect class="cls-1" x="69.7" y="439.46" width="83.65" height="17.74" transform="translate(-336.8 559.85) rotate(-90)"/></g></g></svg>