<?xml version="1.0" encoding="utf-8"?>
<!-- Generator: Adobe Illustrator 24.0.1, SVG Export Plug-In . SVG Version: 6.00 Build 0)  -->
<svg version="1.1" id="Color_swatches" xmlns="http://www.w3.org/2000/svg" xmlns:xlink="http://www.w3.org/1999/xlink" x="0px"
	 y="0px" viewBox="0 0 1000 1000" style="enable-background:new 0 0 1000 1000;" xml:space="preserve">
<style type="text/css">
	.st0{fill:#2F90CF;}
	.st1{fill:#FFFFFF;}
</style>
<g id="Profile">
</g>
<g id="Lint_Logo">
</g>
<g>
	<circle class="st0" cx="500" cy="500" r="500"/>
	<g>
		<g>
			<path class="st1" d="M409.3,669.7v11.7h-58.5V578.3h13.9v91.4H409.3z"/>
			<path class="st1" d="M535.6,578.3v103.1h-12.2v-75.8c0-1,0-2.1,0.1-3.2c0.1-1.2,0.2-2.3,0.3-3.5l-35.4,64.5
				c-1.1,2.2-2.8,3.2-5,3.2h-2c-2.3,0-3.9-1.1-5-3.2l-36.1-64.8c0.3,2.5,0.4,4.9,0.4,7.1v75.8h-12.2V578.3h10.3
				c1.2,0,2.2,0.1,2.9,0.4c0.7,0.2,1.3,0.9,1.9,2l35.6,63.5c0.6,1.2,1.1,2.4,1.7,3.6c0.6,1.2,1.1,2.5,1.5,3.8c0.5-1.3,1-2.6,1.5-3.9
				c0.5-1.3,1.1-2.5,1.7-3.6l35-63.4c0.6-1.1,1.2-1.8,1.9-2c0.7-0.2,1.7-0.4,2.9-0.4H535.6z"/>
			<path class="st1" d="M605.4,670.4c4.3,0,8.1-0.7,11.4-2.2c3.4-1.4,6.2-3.5,8.5-6c2.3-2.6,4.1-5.7,5.3-9.3s1.8-7.6,1.8-11.9v-62.7
				h13.9V641c0,6-0.9,11.5-2.8,16.6c-1.9,5.1-4.6,9.5-8.1,13.2s-7.8,6.6-12.9,8.7c-5.1,2.1-10.8,3.2-17.1,3.2s-12-1.1-17.1-3.2
				c-5.1-2.1-9.4-5-13-8.7c-3.6-3.7-6.3-8.1-8.2-13.2c-1.9-5.1-2.8-10.6-2.8-16.6v-62.7h13.9v62.6c0,4.3,0.6,8.3,1.8,11.9
				c1.2,3.6,3,6.7,5.3,9.3c2.3,2.6,5.2,4.6,8.6,6.1C597.3,669.7,601.1,670.4,605.4,670.4z"/>
		</g>
		<g>
			<path class="st1" d="M299.7,522.5h-51V277.2h51V522.5z"/>
			<path class="st1" d="M513.4,428.8v26.4c0,2.5-0.8,4.6-2.5,6.3c-1.6,1.7-3.9,2.6-6.8,2.6H485v58.3h-40.6v-58.3H343.1
				c-2.9,0-5.6-0.9-8-2.7c-2.4-1.8-3.9-4.2-4.5-7.1l-4.9-23.3l114.9-154H485v151.8H513.4z M444.4,428.8v-73c0-3.8,0.1-7.9,0.4-12.3
				c0.3-4.3,0.7-8.9,1.3-13.6l-71,98.9H444.4z"/>
			<path class="st1" d="M666.5,397.6h84.2v101.2c-12.5,9.1-25.8,15.8-40,20c-14.1,4.2-29.1,6.3-44.9,6.3c-20.2,0-38.4-3.1-54.8-9.4
				c-16.3-6.3-30.3-15-41.9-26.1c-11.6-11.2-20.6-24.4-26.9-39.7c-6.3-15.3-9.5-32.1-9.5-50.2c0-18.4,3-35.2,9-50.5
				c6-15.3,14.6-28.5,25.8-39.6c11.2-11,24.6-19.7,40.5-25.9c15.8-6.2,33.6-9.3,53.2-9.3c10.1,0,19.6,0.8,28.4,2.5
				c8.8,1.6,16.9,3.9,24.3,6.8c7.4,2.9,14.3,6.3,20.5,10.2c6.2,3.9,11.8,8.3,16.9,13l-14.7,22.6c-2.3,3.6-5.2,5.8-8.8,6.6
				c-3.6,0.8-7.6-0.1-11.8-2.7c-4.1-2.5-8-4.7-11.9-6.7c-3.9-2-8-3.7-12.4-5.2c-4.4-1.5-9.2-2.6-14.4-3.4
				c-5.2-0.8-11.2-1.2-17.9-1.2c-11.4,0-21.7,2-30.9,5.9c-9.2,3.9-17.1,9.5-23.6,16.7c-6.5,7.2-11.5,15.9-15,26
				c-3.5,10.1-5.2,21.5-5.2,34c0,13.5,1.9,25.6,5.7,36.3c3.8,10.6,9.2,19.6,16.2,27c7,7.3,15.4,12.9,25.1,16.7
				c9.7,3.8,20.6,5.7,32.5,5.7c8.1,0,15.4-0.8,21.7-2.5c6.4-1.6,12.6-3.9,18.7-6.7v-41.2H677c-3.3,0-5.8-0.9-7.7-2.6
				c-1.9-1.7-2.8-4-2.8-6.7V397.6z"/>
		</g>
	</g>
</g>
<g>
	<path class="st0" d="M-848.1,1000c-275.7,0-500-224.3-500-500s224.3-500,500-500s500,224.3,500,500S-572.4,1000-848.1,1000z
		 M-848.1,36.7c-255.5,0-463.3,207.9-463.3,463.3s207.9,463.3,463.3,463.3S-384.7,755.5-384.7,500S-592.6,36.7-848.1,36.7z"/>
	<g>
		<g>
			<g>
				<path class="st0" d="M-935,663.6v11.2h-56.1V576h13.3v87.6H-935z"/>
				<path class="st0" d="M-814,576v98.8h-11.7v-72.6c0-1,0-2,0.1-3.1c0.1-1.1,0.1-2.2,0.2-3.4l-33.9,61.8c-1.1,2.1-2.7,3.1-4.8,3.1
					h-1.9c-2.2,0-3.8-1-4.8-3.1l-34.6-62.1c0.3,2.4,0.4,4.7,0.4,6.8v72.6h-11.7V576h9.9c1.2,0,2.1,0.1,2.8,0.3
					c0.6,0.2,1.3,0.9,1.9,1.9l34.1,60.8c0.6,1.1,1.1,2.3,1.6,3.4c0.5,1.2,1,2.4,1.5,3.7c0.5-1.2,0.9-2.5,1.4-3.7
					c0.5-1.2,1.1-2.4,1.7-3.5l33.5-60.8c0.6-1.1,1.2-1.7,1.8-1.9c0.7-0.2,1.6-0.3,2.8-0.3H-814z"/>
				<path class="st0" d="M-747.1,664.2c4.1,0,7.7-0.7,11-2.1c3.2-1.4,5.9-3.3,8.2-5.8c2.2-2.5,3.9-5.4,5.1-8.9s1.8-7.2,1.8-11.4V576
					h13.3v60.1c0,5.7-0.9,11-2.7,15.9c-1.8,4.9-4.4,9.1-7.8,12.7c-3.4,3.6-7.5,6.4-12.4,8.4c-4.9,2-10.3,3-16.4,3s-11.5-1-16.4-3
					c-4.9-2-9-4.8-12.4-8.4c-3.4-3.6-6-7.8-7.8-12.7c-1.8-4.9-2.7-10.2-2.7-15.9V576h13.3v60c0,4.1,0.6,7.9,1.8,11.4
					c1.2,3.4,2.9,6.4,5.1,8.9c2.2,2.5,5,4.4,8.2,5.8C-754.9,663.5-751.2,664.2-747.1,664.2z"/>
			</g>
			<g>
				<path class="st0" d="M-1041,521.6h-49.2V285.4h49.2V521.6z"/>
				<path class="st0" d="M-835.2,431.4v25.4c0,2.4-0.8,4.4-2.4,6.1c-1.6,1.7-3.8,2.5-6.6,2.5h-18.4v56.2h-39.1v-56.2h-97.5
					c-2.8,0-5.4-0.9-7.7-2.6c-2.3-1.7-3.8-4-4.3-6.8l-4.7-22.5l110.7-148.3h42.7v146.2H-835.2z M-901.7,431.4v-70.3
					c0-3.7,0.1-7.6,0.4-11.8c0.3-4.2,0.7-8.5,1.2-13.1l-68.4,95.3H-901.7z"/>
				<path class="st0" d="M-687.7,401.3h81.1v97.5c-12,8.8-24.9,15.2-38.5,19.3c-13.6,4.1-28,6.1-43.2,6.1c-19.4,0-37-3-52.8-9
					c-15.7-6-29.2-14.4-40.4-25.2c-11.2-10.7-19.8-23.5-25.9-38.3c-6.1-14.8-9.1-30.9-9.1-48.4c0-17.7,2.9-33.9,8.7-48.7
					c5.8-14.8,14.1-27.5,24.8-38.1c10.7-10.6,23.7-18.9,39-24.9c15.2-6,32.3-9,51.2-9c9.8,0,18.9,0.8,27.4,2.4
					c8.5,1.6,16.3,3.7,23.4,6.5c7.2,2.8,13.7,6.1,19.7,9.9c6,3.8,11.4,8,16.3,12.5l-14.2,21.8c-2.2,3.5-5,5.6-8.5,6.3
					c-3.5,0.8-7.3-0.1-11.4-2.6c-3.9-2.4-7.7-4.5-11.5-6.4c-3.7-1.9-7.7-3.6-12-5c-4.2-1.4-8.8-2.5-13.8-3.3
					c-5-0.8-10.7-1.1-17.3-1.1c-11,0-20.9,1.9-29.8,5.7c-8.9,3.8-16.5,9.2-22.7,16.1c-6.2,6.9-11,15.3-14.4,25.1
					c-3.4,9.8-5,20.7-5,32.7c0,13,1.8,24.7,5.5,34.9c3.7,10.3,8.9,18.9,15.6,26c6.7,7.1,14.8,12.4,24.2,16.1
					c9.4,3.7,19.8,5.5,31.3,5.5c7.8,0,14.8-0.8,20.9-2.4c6.1-1.6,12.1-3.7,18-6.4v-39.7h-26.7c-3.1,0-5.6-0.8-7.4-2.5
					c-1.8-1.7-2.7-3.8-2.7-6.4V401.3z"/>
			</g>
		</g>
	</g>
</g>
</svg>
